# xmcd
#
# Track frame offsets:
#	150
#	12987
#	26200
#	42230
#	59400
#	72487
#	87600
#	99332
#	113750
#	131012
#	146000
#	163850
#	180465
#	193625
#	206825
#	223865
#	239720
#	263162
#	278900
#	296657
#
# Disc length: 4202
#
# Revision: 5
# Processed by: cddbd v1.5.1PL0 Copyright (c) Steve Scherf et al.
# Submitted via: ExactAudioCopy v0.90b4
# Normalized: r4:DSETVAR1,TDELIM( - ),TSWAP
#
DISCID=43106814
DTITLE=Various Artist - The Love Collection Vol 1 A Time For Loving
DYEAR=1900
DGENRE=Pop ballads
TTITLE0=Dr Hook - A Little Bit More
TTITLE1=Gallagher and Lyle - I Want To Stay With You
TTITLE2=Rita Coolidge - We're All Alone
TTITLE3=Kenny Rogers - Lady
TTITLE4=Crystal Gayle - Talking In Your Sleep
TTITLE5=Minnie Ripperton - Loving You
TTITLE6=Sutherland Brothers and Quiver - Arms Of Maty
TTITLE7=Johnny Nash - Tears On My Pillow
TTITLE8=David Essex - Hold Me Close
TTITLE9=Ken Boothe - Everything I Own
TTITLE10=David Soul - Going In With My Eyes Open
TTITLE11=Harold Melvin - Keep On Lovin' You
TTITLE12=Colin Blunstone - I Don't Believe In Miracles
TTITLE13=Charlie Rich - Behind Closed Doors
TTITLE14=Korgies - If I Had You
TTITLE15=Lindsay De Paul - No Honesty
TTITLE16=Justin Hayward - Forever Autumn
TTITLE17=Gene Pitney - Something's Gotten Hold Of My Heart
TTITLE18=Samantha Sang - Emotion
TTITLE19=Juice Newton - Angel Of The Morning
EXTD=
EXTT0=
EXTT1=
EXTT2=
EXTT3=
EXTT4=
EXTT5=
EXTT6=
EXTT7=
EXTT8=
EXTT9=
EXTT10=
EXTT11=
EXTT12=
EXTT13=
EXTT14=
EXTT15=
EXTT16=
EXTT17=
EXTT18=
EXTT19=
PLAYORDER=
